<svg xmlns="http://www.w3.org/2000/svg" viewBox="0 0 738.84 135.87"><defs><style>.cls-1{fill:#27509b;}.cls-2{fill:#fff;}</style></defs><title>Michelin-horizontal-logo-RBG</title><g id="Layer_2" data-name="Layer 2"><g id="Layer_1-2" data-name="Layer 1"><polygon class="cls-1" points="3.84 125.21 0 135.64 398.68 135.64 402.52 125.21 3.84 125.21"/><path d="M201.25,125.21l.88-.3.68-.23c3-1,9.73-4.52,12.23-9.45,5.05-1.93,8.79-4.49,11.12-7.61a29.64,29.64,0,0,0,9.66-3.74c4.38-2.48,7.47-4.92,9.44-7.45A24.87,24.87,0,0,0,248.62,91,60,60,0,0,0,254,87.72c7.67-5.14,9.3-14.51,9.46-15.57,0-.23.07-.46.09-.68.39,0,.78,0,1.17,0,7.71,0,17.77-4.85,23.19-7.45l.08,0c.84-.41,1.56-.75,1.92-.91a64.05,64.05,0,0,0,9.34-5.32c4.86-3.27,8.22-6.32,10-9.06a6,6,0,0,0,.67-1.43L313,45.35a5.93,5.93,0,0,0,2.18-2.44c.87-.48,1.6-.92,1.83-1.06a6,6,0,0,0,2.68-7.11l0-.08a9.58,9.58,0,0,0-6.7-6.17,7.9,7.9,0,0,0-7.23-4.44,8.09,8.09,0,0,0-1.7.17l-7,1.68L288.1,28a8.42,8.42,0,0,0-.32-6.58,7.22,7.22,0,0,0-6.32-4.12,6.14,6.14,0,0,0-2.64.59l-.08,0c-.34.16-1,.48-16.86,10.79a4.94,4.94,0,0,0-.59.43c-7.73,6.74-10.53,10.68-11.2,11.71a18.73,18.73,0,0,0-1.55,2.83c-.41-.2-.82-.4-1.23-.58A24.41,24.41,0,0,0,237.43,41a22.73,22.73,0,0,0-11.55,3.08,60.76,60.76,0,0,0-6.33,4.36,21,21,0,0,0-3.73,3.69,23.81,23.81,0,0,0-5.6,1.88,35.64,35.64,0,0,0-5.42,3.77l-.12.09-1,.76a26.12,26.12,0,0,0-4.88,5.12l-.24.05a28.46,28.46,0,0,0-6,2.14c-.79.38-1.58.81-2.35,1.27A33.38,33.38,0,0,0,182,68.68l-.15,0a36.25,36.25,0,0,0-6.53-.6,26.72,26.72,0,0,0-4.13.3A49.5,49.5,0,0,0,165,69.61a30,30,0,0,0-7.48,3.49,107.23,107.23,0,0,0-19.23-2.42c4.37-5.86,6.53-12.67,5.81-18.52a29.35,29.35,0,0,0-11.47-19.44c-4.64-19.21-18-27.38-29-28.64C101.44,1.56,97.26,0,92.6,0a20.83,20.83,0,0,0-5.53.74c-5.89,1.63-10.56,6.13-11.48,11-5.91,4.89-15.07,15.85-12.54,35.62-2.22,3-6.49,10.65-3.58,22.16a23.34,23.34,0,0,0,14.25,16.6,59.86,59.86,0,0,0-14.9,10l-.75.71a39,39,0,0,0-26,11.9,52.8,52.8,0,0,0-10.79,16.49Z"/><path class="cls-2" d="M200.9,118.87A31.12,31.12,0,0,1,190.22,121h-.46c-5.24-.09-11.37-2.81-15.83-7.69a26.05,26.05,0,0,1-6.22-19.61A22.66,22.66,0,0,1,178.07,77a18.23,18.23,0,0,1,3.76-1.81c.53-.19,1-.36,1.56-.52l-.28.41a26.81,26.81,0,0,0-2.4,24.36,33.64,33.64,0,0,0,4.85,8.1,24.45,24.45,0,0,0,8.93,6.84,24.1,24.1,0,0,0,9.93,2.13q.54,0,1.08,0a20,20,0,0,1-4.6,2.41"/><path class="cls-2" d="M211.72,109.94a22.4,22.4,0,0,1-7.3,1.3,19,19,0,0,1-7.8-1.67c-5.89-2.62-9.11-7.69-11.09-12.24A21.52,21.52,0,0,1,187.46,78a20.15,20.15,0,0,1,8.45-6.82c-1.74,5.1-2.53,13,3.06,22.46l0,.06,0,.06A28.62,28.62,0,0,0,210,104a27.14,27.14,0,0,0,8.31,2.77,27.3,27.3,0,0,1-6.56,3.18"/><path class="cls-2" d="M232.8,98.56a21,21,0,0,1-9.91,3.26h-.57c-6.28,0-13.85-3-18.84-10.88-8.8-14.85.83-25,4-27.47a52.15,52.15,0,0,1,5.28-3.87,23.68,23.68,0,0,0-1,4,26.75,26.75,0,0,0,12.59,26.09,24.58,24.58,0,0,0,12.58,3.64,21.7,21.7,0,0,0,3.24-.24,28.94,28.94,0,0,1-7.29,5.47"/><path class="cls-2" d="M44.62,125.21a47.28,47.28,0,0,1,3.06-11.58,46.55,46.55,0,0,1,5.64-10.07A32.73,32.73,0,0,0,36.39,113,46.09,46.09,0,0,0,28,125.21Z"/><path class="cls-2" d="M155.66,125.21c-1.11-1-2-1.92-2.82-2.73-3.8-3.89-6.77-10.78-7.74-15.57a33.34,33.34,0,0,1,3.17-22.5,27.23,27.23,0,0,1,4.33-6.1,112.79,112.79,0,0,0-18.75-1.62,4.85,4.85,0,0,1-1.24,1.61c-3,2.57-5.46,3.25-3.75,1.28s1.6-4.1,1.13-4.57-1.07-.1-1.51,0c-4.9,1.76-5.79,1-4.81.41A38.45,38.45,0,0,0,132,68.77c3.66-4.16,6.73-10.28,6-15.86a22.87,22.87,0,0,0-8.25-14.68c-.36-.29-.74-.58-.93-.72l-.32-.23,0,0h0a9.72,9.72,0,0,0-2-1.1c-1-.35-.68-1,.36-1.27-.11-.52-.22-1.09-.35-1.6s-.27-1-.41-1.47C121.7,17.22,111.32,11,102.73,10.12l-.26,0c-2-.2-3.37-.16-3.7-.2-1.4-.18-.82-.78,0-1.11a.41.41,0,0,0,.26-.61c-1-1.5-5.59-2.86-10.38-1.54a11.61,11.61,0,0,0-6,3.92,7,7,0,0,0-.59,1c-.05.09-.08.2-.12.29-.19.61.51.42.51.42,2.27-.48,3.27.15,1.48,1.09a35.13,35.13,0,0,0-3.81,2.5,29,29,0,0,0-8.38,10.32A33.71,33.71,0,0,0,68.74,42c.05.79.13,2.4.21,2.9s.48,1.18,1.88,1c1.92-.25,3.13-.57,1.37.84A36.73,36.73,0,0,0,68,50.93c-2.57,3.33-4.56,9.42-2.61,17.11A17.41,17.41,0,0,0,77.72,81.1a69.91,69.91,0,0,0,19.72,2.21c.73,0,.92.09.83.37s-.64.48-1.31.57c-1.12.16-3.5.62-7.61,1a2,2,0,0,0-1.74,1.14.41.41,0,0,1,0,.07c-.47,1.8,3.16,3.32,3.59,3.45,1.42.45.78,1.17.2,1.26-2.6.46-7.26-.59-9.85-.76a9.11,9.11,0,0,0-3.53.45,54.9,54.9,0,0,0-15,9.71A41.61,41.61,0,0,0,49.9,125.21Z"/><path class="cls-2" d="M156.59,118.81a25.6,25.6,0,0,0,8.71,6.4h18a28.2,28.2,0,0,1-4-1.53,30.12,30.12,0,0,1-9.25-6.84A29.29,29.29,0,0,1,163.89,106a32.22,32.22,0,0,1-1.4-12.8A27.18,27.18,0,0,1,166.76,81a28.34,28.34,0,0,1,6.05-6.72l-.75.1a44.23,44.23,0,0,0-5.32,1.08,23.68,23.68,0,0,0-13.81,11.35,28,28,0,0,0-2.69,19c.9,4.42,3.63,10.16,6.35,13"/><path class="cls-2" d="M314.32,37.45c-.52.33-1.2.72-1.83,1.06l-.05-.09a5.62,5.62,0,0,0-3.55-2.79c-2.29-.54-5.16.38-9,2.88-5.63,3.62-14.32,5.68-14.41,5.7a1.11,1.11,0,0,0,.25,2.2,1.15,1.15,0,0,0,.26,0c.37-.08,9.15-2.15,15.11-6,3.24-2.09,5.7-3,7.31-2.59a3.24,3.24,0,0,1,1.95,1.46h0c.74,1.13.05,1.66,0,1.7s-2.83,1.75-4,2.45a5.52,5.52,0,0,0-3.6-1.79c-2-.17-4.08.74-6.17,2.71a28.35,28.35,0,0,1-10.7,6.37,1.12,1.12,0,0,0,.29,2.2,1,1,0,0,0,.29,0A30.1,30.1,0,0,0,298.11,46c1.59-1.5,3.13-2.23,4.45-2.12a3.36,3.36,0,0,1,2.27,1.24.78.78,0,0,1,0,.86c-3.11,4.9-13.88,11.12-17,12.41-2.33,1-11.46,5.92-19,7.5a14.69,14.69,0,0,1-2.49.4l-.26,0c-1.1,0-6.17.13-7.68-1.4-2.18-2.2-3-.63-2.3,2.22l-6.92,4.21c-2.47,1.52-5.7-.17-6.26-.18-1.34,0,1.83,3.94,4.42,4.32,2.81.4,8-2.92,8-2.92l2-1.29h0s-1.16,7.62-6.82,11.41a39.73,39.73,0,0,1-6.3,3.67,16.77,16.77,0,0,1-7.44,1.77,19.34,19.34,0,0,1-9.91-2.91c-9.12-5.39-10.93-16-10.08-20.73,0,0,1-7,6.41-11.14A53,53,0,0,1,229,49.35a16.41,16.41,0,0,1,8.42-2.22,18.25,18.25,0,0,1,7.32,1.57,7.71,7.71,0,0,0-1.86,1.74c-1,1.55-2.47,5.14-1.47,5.12.71,0,1.19-1.75,3.6-3,1.18-.62,6.83-3.92,6.83-3.92a12.3,12.3,0,0,1,.49-1.4,24.58,24.58,0,0,1,2.14-3.59c.1-.14.3-.43.62-.86a33.44,33.44,0,0,1,3.17-3.62h0c1.54-1.61,3.63-3.63,6.42-6.06,0,0,15.63-10.13,16.34-10.49a1,1,0,0,1,.43-.09c1.34,0,3.22,2.34.88,5.44a29.29,29.29,0,0,1-5.85,5.52,7.71,7.71,0,0,1-1.68,1,32.72,32.72,0,0,0-6,3.06c-.55.42-.51,1.09.14.8a47.56,47.56,0,0,1,6-1.9c3.55-.78,29.65-7.06,30.13-7.16a3.09,3.09,0,0,1,.65-.06,2.71,2.71,0,0,1,2.82,2.21,1.16,1.16,0,0,1,0,.18l-23.93,7.12a1.12,1.12,0,0,0-.75,1.4,1.14,1.14,0,0,0,.86.77,1.1,1.1,0,0,0,.54,0l21.31-6.35a24.12,24.12,0,0,0,2.75-.82l.25-.07a4.78,4.78,0,0,1,1.29-.2,4.25,4.25,0,0,1,3.87,2.93.86.86,0,0,1-.49,1.09"/><path d="M93.88,57.37a4.73,4.73,0,0,0-1.95,2.18,2,2,0,0,0-.1,1.19.47.47,0,0,1-.23.58h0a.61.61,0,0,1-.5,0,.55.55,0,0,1-.26-.3,4,4,0,0,1,1-3.78,4.9,4.9,0,0,1,1.38-.92c.18-.08.7-.28,1,.1s0,.77-.29.94m32.8-6.44c-.3.06-.43-.34-.6-.79-.94,1.23-2.89,3.13-3.15,3.47a12.06,12.06,0,0,0-1.15,1.84,30.41,30.41,0,0,1-1.86,3.11,12,12,0,0,1-3.57,3.33,13.89,13.89,0,0,1-9.14,1.87,16.5,16.5,0,0,1-4.66-1.6,10.43,10.43,0,0,0-3.83-1.41,31.57,31.57,0,0,1-4.56-.11A1.21,1.21,0,0,1,93,59.83a1.15,1.15,0,0,1,1-1.5h0c.24,0,.49.06.73.07l1.46.08a49.89,49.89,0,0,0,16.14-2.29,32.11,32.11,0,0,0,9-4.25,18.74,18.74,0,0,0,3.13-2.7c.14-.15.27-.35.42-.52a1.82,1.82,0,0,0-.28-.14c-.27-.09-.3-.6.22-.75a1.75,1.75,0,0,1,1.49.42,2.51,2.51,0,0,1,.61,1.31c.08.57,0,1.3-.32,1.37m-7.2,4.64a46,46,0,0,1-15.66,4.74,13,13,0,0,0,4.58,1.36,11.6,11.6,0,0,0,4.34-.54,11,11,0,0,0,4-2.05,12.47,12.47,0,0,0,2.78-3.51M89,44a15.9,15.9,0,0,1-1.67-5.24,17.25,17.25,0,0,1,0-5.46A6.9,6.9,0,0,1,89.8,28.8a7.47,7.47,0,0,1,4.25-1.39,5.86,5.86,0,0,1,1.19.12c3.8.78,5.58,3.88,7.09,8.26,1.65,4.8.5,10.78-2.57,12.09a19.28,19.28,0,0,1-2,.66,8.71,8.71,0,0,1-2.39.39,5,5,0,0,1-2.64-.71A10.77,10.77,0,0,1,89,44m1.34-.71a9.19,9.19,0,0,0,3.18,3.67,3.61,3.61,0,0,0,1.87.5,7,7,0,0,0,2-.33h0a15,15,0,0,0,1.83-.59c1-.41,1.77-1.78,2.16-3.64a11.79,11.79,0,0,0,.22-2.15c-.24,2.29-1.35,4.06-3,4.44-2.42.58-5.11-2-6-5.76a10.42,10.42,0,0,1-.28-2.94A1.71,1.71,0,0,0,94,37.1a2,2,0,0,0,1.07-2.55,2.21,2.21,0,0,0-1.71-1.67,3.33,3.33,0,0,1,1.92-1.36c1.77-.41,3.68.85,4.93,3,0-.12-.1-.23-.14-.34-1.22-2.42-3.32-4.92-7.32-3.85-5.26,1.41-4.06,8.3-3.49,10.43a13.63,13.63,0,0,0,1,2.46m24.75-1,.1,0-.2,0,.1,0m-6.23-6.44a20.76,20.76,0,0,1-.83-6.33c.18-3.33,1.88-5.22,3.93-5.86A6.35,6.35,0,0,1,118.62,26a18.45,18.45,0,0,1,2.4,4.27q.36.81.69,1.74a13.8,13.8,0,0,1,.82,5.33,9.8,9.8,0,0,1-.56,2.8A4.71,4.71,0,0,1,120,42.81a7.71,7.71,0,0,1-2.11.68h0a9.18,9.18,0,0,1-1.86.24,5.59,5.59,0,0,1-1.17-.13l-.18,0h0l-.07,0h-.06a7.3,7.3,0,0,1-3.58-2.95,13,13,0,0,1-1.59-3.09l0,0s-.08-.22-.2-.61-.16-.47-.23-.69v-.06c0-.1,0-.2-.08-.3m.83-4.44a17.13,17.13,0,0,0,.58,4.39,13.77,13.77,0,0,0,1.84,4,6.08,6.08,0,0,0,2.88,2.45h0l.11,0,.11,0h0a3.87,3.87,0,0,0,.89.11,8,8,0,0,0,1.57-.21,6.41,6.41,0,0,0,1.77-.56,3.51,3.51,0,0,0,1.3-1.91,8.39,8.39,0,0,0,.48-2.41,12.29,12.29,0,0,0-.57-4.26c0,.06,0,.12,0,.18.81,3.65-.29,7-2.46,7.51s-4.58-2.07-5.39-5.72a11.31,11.31,0,0,1-.25-2.84,1.69,1.69,0,0,0,1.79.81,2,2,0,0,0,1.07-2.54,2.09,2.09,0,0,0-1.85-1.7,2.86,2.86,0,0,1,1.7-1.25c1.4-.32,2.91.64,4,2.35a12.38,12.38,0,0,0-.94-1.45,6,6,0,0,0-3.41-2.52,3.65,3.65,0,0,0-.74-.08,4.49,4.49,0,0,0-3.34,1.56,6.29,6.29,0,0,0-1.18,4"/><path class="cls-1" d="M406.63,59.13l-15.38,41.73h20.23l15.35-41.73Zm315.3,0L711.39,87.77c.15-2.88.72-14.27,1.08-20.84.14-2.7-.45-4.76-1.74-6.13a5.55,5.55,0,0,0-3.67-1.67H683.57l-15.35,41.73h17l10.9-29.55-1.29,29.55h28.59l15.37-41.73Zm-355.26,0L351.91,81.54s.94-11.73,1.18-14.55c.17-2.15-.09-7.86-5.33-7.86H324.33L309,100.86h18.33l11.13-30.18-2.35,30.18h16.28l20-29.66-10.9,29.66h18.45l15.36-41.73Zm154.4,0-5.58,15H505.32l5.54-15H491.57l-15.32,41.73h19.22l5.24-14.13H510.9l-5.24,14.13H524.9l15.39-41.73Zm-66.24.37C442.58,62,426,71,426.17,87.42c.1,9.46,11.54,14.71,24.66,14.35a106.37,106.37,0,0,0,15.25-1.7L471,87.43c-6.45,1-12.63,2.57-17.49.63-8.75-3.5-3.36-12.6,2.82-15.43a24.69,24.69,0,0,1,10.9-2.33c1.84,0,6.36.11,8.11,4.1l6.12-14.66C470.89,57.14,460.32,58.38,454.83,59.5ZM566.72,70.06h23.06l4.05-10.93H551.69l-15.37,41.73H579l4.13-11.26H559.55L561.28,85h22L587,74.69h-22ZM652,59.13l-15.38,41.73h20.23l15.36-41.73Zm-27.5,0H604.8l-15.38,41.73h39.49L634,87H614.21Z"/><path class="cls-1" d="M431.17,132.2h-7.31l-2.53,3.44H418.7l9.84-12.94a1.81,1.81,0,0,1,1.65-.88h2.58l.92,13.82h-2.33Zm-.52-9.17-5.45,7.35h5.86Z"/><path class="cls-1" d="M446.57,121.82h7.14c3.63,0,4.86,1.78,4,4.22a4.34,4.34,0,0,1-3.46,2.72,2.74,2.74,0,0,1,1.9,3.92c-.86,2.27-3,3-5.64,3h-8.95Zm-.38,7.73-1.56,4.28h5.24c2.5,0,3.54-.4,4-1.71.6-1.69-.38-2.57-2.95-2.57Zm2.17-5.93-1.56,4.24h3.94c2.47,0,4-.38,4.53-2s-.18-2.27-2.5-2.27Z"/><path class="cls-1" d="M463.49,121.82H475l-.68,1.8h-9l-1.53,4.2h8.12l-.68,1.81h-8.1l-1.53,4.2h9l-.65,1.81H458.46Z"/><path class="cls-1" d="M484.3,123.68l-4.36,12H477.5l4.36-12h-5.47l.69-1.86h13.3l-.69,1.86Z"/><path class="cls-1" d="M500,123.68l-4.36,12h-2.44l4.36-12H492l.69-1.86H506l-.69,1.86Z"/><path class="cls-1" d="M508.7,121.82h11.48l-.67,1.8h-9l-1.54,4.2h8.12l-.67,1.81h-8.1l-1.54,4.2h9l-.65,1.81H503.67Z"/><path class="cls-1" d="M526.83,130.84h-4.29l-1.74,4.8h-2.44l5-13.82h5.41c4.9,0,6.22,2.13,5.05,5.29-.84,2.33-2.63,3.21-4.8,3.42l2,5.11h-2.5Zm-1.66-7.22-2,5.41h3.3c3.11,0,4.36-.4,5-2.24.81-2.29.17-3.17-3.26-3.17Z"/><path class="cls-1" d="M543.15,121.82h2.38l-.14,12.24,8-12.24h3.41L556.53,134l8-12.17h2.63l-8.75,12.93a1.78,1.78,0,0,1-1.52.89h-2.61l.19-12.08-7.45,11.19a1.68,1.68,0,0,1-1.55.89h-2.36Z"/><path class="cls-1" d="M574.69,132.2h-7.31l-2.54,3.44h-2.63l9.85-12.94a1.81,1.81,0,0,1,1.65-.88h2.57l.93,13.82h-2.33Zm-.52-9.17-5.45,7.35h5.86Z"/><path class="cls-1" d="M581.32,135.64l2.18-6-3.64-7.81h2.38l2.9,6.14,7.4-6.14h2.92l-9.58,8-2.13,5.84Z"/><path class="cls-1" d="M602.63,130.4l-1.9,5.24h-2.44l5-13.82H614.8l-.67,1.82h-9l-1.78,4.91h8.18l-.68,1.85Z"/><path class="cls-1" d="M614,128.17c1.63-4.47,4.36-6.58,9.08-6.58,6.11,0,7.41,3.57,5.9,7.69-1.66,4.48-4.38,6.59-9.08,6.59C613.78,135.87,612.48,132.3,614,128.17Zm12.63.79c1.25-3.46.22-5.51-3.74-5.51-3.17,0-5.16,1.23-6.54,5-1.27,3.47-.24,5.53,3.7,5.53C623.25,134,625.24,132.78,626.64,129Z"/><path class="cls-1" d="M638.43,130.84h-4.28l-1.74,4.8H630l5-13.82h5.41c4.9,0,6.22,2.13,5.05,5.29a5.11,5.11,0,0,1-4.8,3.42l2,5.11h-2.5Zm-1.65-7.22-2,5.41h3.3c3.11,0,4.35-.4,5-2.24.8-2.29.17-3.17-3.27-3.17Z"/><path class="cls-1" d="M648.82,121.82h2.38l-.13,12.24,8-12.24h3.42L662.2,134l8-12.17h2.62l-8.75,12.93a1.76,1.76,0,0,1-1.51.89H660l.19-12.08-7.45,11.19a1.68,1.68,0,0,1-1.56.89h-2.36Z"/><path class="cls-1" d="M680.37,132.2h-7.32l-2.53,3.44h-2.63l9.85-12.94a1.81,1.81,0,0,1,1.65-.88H682l.92,13.82h-2.32Zm-.52-9.17-5.45,7.35h5.85Z"/><path class="cls-1" d="M693.52,130.84h-4.28l-1.75,4.8h-2.44l5-13.82h5.42c4.89,0,6.21,2.13,5,5.29a5.1,5.1,0,0,1-4.79,3.42l2,5.11h-2.49Zm-1.65-7.22-2,5.41h3.3c3.11,0,4.36-.4,5-2.24.81-2.29.18-3.17-3.26-3.17Z"/><path class="cls-1" d="M706.21,121.82H712c5.2,0,6.68,3.49,5.22,7.46-1.57,4.34-4.16,6.36-9.12,6.36h-6.87Zm1.77,1.82-3.69,10.15h3.84c3.61,0,5.41-1.22,6.72-4.87,1.15-3.23.11-5.28-3.05-5.28Z"/></g></g></svg>